<svg width="123" height="71" xmlns="http://www.w3.org/2000/svg" version="1.1" xml:space="preserve">
 <g>
  <title>Layer 1</title>
  <g id="svg_1">
   <path class="st0" d="m2.54,65.44l12.59,0c-0.93,-0.24 -1.63,-1.1 -1.63,-2.1l0,-61.17c0,-1.19 0.98,-2.17 2.17,-2.17l90.97,0c1.19,0 2.17,0.98 2.17,2.17l0,61.16c0,1.01 -0.69,1.86 -1.63,2.1l13.16,0c1.4,0 2.54,1.14 2.54,2.54l0,0c0,1.4 -1.14,2.54 -2.54,2.54l-117.8,0c-1.4,0 -2.54,-1.14 -2.54,-2.54l0,0c0,-1.39 1.14,-2.53 2.54,-2.53l0,0zm14.67,-62.04l88.19,0l0,59.32l-88.19,0l0,-59.32l0,0zm40.66,62.99l7.14,0c0.67,0 1.22,0.55 1.22,1.22l0,0c0,0.67 -0.55,1.22 -1.22,1.22l-7.14,0c-0.67,0 -1.22,-0.55 -1.22,-1.22l0,0c0,-0.68 0.55,-1.22 1.22,-1.22l0,0z" fill-rule="evenodd" fill="#13161c" clip-rule="evenodd" id="svg_2"/>
  </g>
 </g>
</svg>
